<svg xmlns="http://www.w3.org/2000/svg" xmlns:xlink="http://www.w3.org/1999/xlink" width="500" zoomAndPan="magnify" viewBox="0 0 375 374.999991" height="500" preserveAspectRatio="xMidYMid meet" version="1.0"><defs><clipPath id="56abe5fbf6"><path d="M 29.296875 0 L 345 0 L 345 375 L 29.296875 375 Z M 29.296875 0 " clip-rule="nonzero"/></clipPath></defs><g clip-path="url(#56abe5fbf6)"><path fill="#ffffff" d="M 341.09375 198.15625 C 297.609375 166.898438 284.421875 162.132812 277.085938 136.058594 C 274.394531 126.496094 274.554688 124.25 267.117188 116.949219 C 252.609375 102.714844 227.964844 91.152344 221.914062 71.171875 C 221.820312 70.847656 221.605469 70.660156 221.269531 70.617188 C 220.9375 70.570312 220.679688 70.6875 220.496094 70.96875 C 216.472656 77.152344 211.4375 81.964844 204.730469 84.5 C 220.433594 62.878906 221.835938 29.027344 207.023438 0.71875 C 206.945312 0.566406 206.828125 0.449219 206.675781 0.371094 C 206.519531 0.296875 206.355469 0.273438 206.1875 0.304688 C 206.015625 0.335938 205.867188 0.414062 205.75 0.539062 C 205.628906 0.664062 205.558594 0.816406 205.539062 0.988281 C 202.089844 29.351562 171.753906 33.5625 158.761719 63.605469 C 111.476562 66.941406 78.535156 96.773438 62.777344 130.773438 C 62.703125 130.929688 62.683594 131.09375 62.71875 131.265625 C 62.753906 131.4375 62.839844 131.582031 62.972656 131.695312 C 63.101562 131.816406 63.253906 131.882812 63.429688 131.894531 C 63.605469 131.910156 63.765625 131.867188 63.914062 131.773438 C 69.554688 128.222656 76.65625 126.386719 84.378906 126.289062 C 58.746094 143.535156 35.011719 182.664062 29.332031 218.414062 C 29.300781 218.621094 29.34375 218.8125 29.464844 218.988281 C 29.585938 219.160156 29.75 219.269531 29.957031 219.308594 C 80.25 229.546875 130.109375 256.476562 157.730469 293.171875 C 157.84375 293.328125 158 293.425781 158.1875 293.46875 C 158.375 293.511719 158.554688 293.488281 158.726562 293.394531 C 158.898438 293.304688 159.019531 293.171875 159.09375 292.992188 C 159.164062 292.8125 159.167969 292.628906 159.109375 292.445312 C 154.085938 277.679688 148.050781 267.242188 140.890625 259.617188 C 189.03125 286.484375 219.183594 322.800781 234.746094 374.21875 C 234.800781 374.394531 234.898438 374.53125 235.046875 374.636719 C 235.195312 374.742188 235.363281 374.789062 235.542969 374.78125 C 235.722656 374.773438 235.882812 374.707031 236.019531 374.589844 C 236.15625 374.472656 236.242188 374.324219 236.277344 374.144531 C 246.367188 322.5 226.121094 281.125 216.066406 255.347656 C 205.011719 226.984375 213.160156 222.308594 241.304688 229.449219 C 253.871094 232.636719 267.386719 237.683594 279.738281 237.929688 C 308.871094 238.511719 335.84375 223.769531 343.96875 207.523438 C 345.664062 204.136719 344.171875 200.371094 341.09375 198.15625 Z M 244.101562 139.847656 C 240.992188 135.011719 236.632812 131.15625 231.367188 126.570312 C 231.234375 126.453125 231.152344 126.308594 231.117188 126.136719 C 231.082031 125.964844 231.101562 125.796875 231.175781 125.636719 C 231.25 125.480469 231.367188 125.359375 231.523438 125.277344 C 231.679688 125.195312 231.84375 125.167969 232.019531 125.199219 C 243.132812 127.105469 253.808594 133.160156 259.867188 142.160156 C 258.355469 142.78125 247.683594 145.417969 244.101562 139.847656 Z M 244.101562 139.847656 " fill-opacity="1" fill-rule="evenodd"/></g></svg>