<svg xmlns="http://www.w3.org/2000/svg" xmlns:xlink="http://www.w3.org/1999/xlink" width="500" zoomAndPan="magnify" viewBox="0 0 375 374.999991" height="500" preserveAspectRatio="xMidYMid meet" version="1.0"><defs><g/><clipPath id="569ce689ee"><path d="M 55.351562 0 L 337 0 L 337 334.5 L 55.351562 334.5 Z M 55.351562 0 " clip-rule="nonzero"/></clipPath></defs><rect x="-37.5" width="450" fill="#ffffff" y="-37.499999" height="449.999989" fill-opacity="1"/><rect x="-37.5" width="450" fill="#000000" y="-37.499999" height="449.999989" fill-opacity="1"/><g clip-path="url(#569ce689ee)"><path fill="#ffffff" d="M 333.382812 176.699219 C 294.605469 148.828125 282.847656 144.578125 276.304688 121.328125 C 273.90625 112.800781 274.046875 110.796875 267.417969 104.289062 C 254.480469 91.59375 232.503906 81.285156 227.109375 63.46875 C 227.027344 63.175781 226.835938 63.011719 226.535156 62.972656 C 226.238281 62.929688 226.007812 63.035156 225.84375 63.285156 C 222.257812 68.800781 217.765625 73.09375 211.785156 75.351562 C 225.789062 56.074219 227.039062 25.886719 213.828125 0.644531 C 213.761719 0.507812 213.65625 0.402344 213.519531 0.335938 C 213.378906 0.265625 213.234375 0.246094 213.082031 0.273438 C 212.929688 0.300781 212.800781 0.371094 212.695312 0.484375 C 212.585938 0.597656 212.523438 0.730469 212.507812 0.882812 C 209.433594 26.175781 182.378906 29.929688 170.792969 56.71875 C 128.628906 59.695312 99.257812 86.296875 85.207031 116.613281 C 85.140625 116.753906 85.121094 116.902344 85.152344 117.054688 C 85.1875 117.207031 85.261719 117.335938 85.378906 117.4375 C 85.496094 117.542969 85.632812 117.601562 85.789062 117.613281 C 85.945312 117.625 86.085938 117.589844 86.21875 117.503906 C 91.25 114.339844 97.578125 112.703125 104.464844 112.613281 C 81.609375 127.996094 60.445312 162.886719 55.382812 194.761719 C 55.351562 194.949219 55.390625 195.121094 55.5 195.273438 C 55.609375 195.429688 55.753906 195.523438 55.941406 195.5625 C 100.785156 204.691406 145.246094 228.703125 169.875 261.425781 C 169.976562 261.5625 170.113281 261.652344 170.28125 261.691406 C 170.453125 261.726562 170.613281 261.707031 170.765625 261.625 C 170.917969 261.542969 171.027344 261.425781 171.089844 261.265625 C 171.152344 261.105469 171.160156 260.941406 171.101562 260.777344 C 166.625 247.613281 161.246094 238.304688 154.859375 231.503906 C 197.785156 255.460938 224.671875 287.847656 238.550781 333.695312 C 238.597656 333.851562 238.6875 333.976562 238.820312 334.070312 C 238.953125 334.160156 239.097656 334.203125 239.261719 334.195312 C 239.421875 334.1875 239.5625 334.132812 239.6875 334.027344 C 239.808594 333.917969 239.886719 333.789062 239.917969 333.628906 C 248.914062 287.578125 230.859375 250.683594 221.894531 227.699219 C 212.035156 202.40625 219.300781 198.238281 244.398438 204.601562 C 255.605469 207.445312 267.65625 211.945312 278.667969 212.167969 C 304.648438 212.6875 328.699219 199.539062 335.945312 185.054688 C 337.457031 182.03125 336.125 178.675781 333.382812 176.699219 Z M 246.890625 124.703125 C 244.121094 120.394531 240.230469 116.957031 235.539062 112.867188 C 235.421875 112.761719 235.34375 112.632812 235.3125 112.480469 C 235.28125 112.324219 235.300781 112.175781 235.367188 112.035156 C 235.433594 111.894531 235.539062 111.785156 235.675781 111.710938 C 235.816406 111.640625 235.964844 111.617188 236.117188 111.640625 C 246.027344 113.34375 255.550781 118.742188 260.953125 126.769531 C 259.601562 127.324219 250.085938 129.671875 246.890625 124.703125 Z M 246.890625 124.703125 " fill-opacity="1" fill-rule="evenodd"/></g><g fill="#ffffff" fill-opacity="1"><g transform="translate(54.720023, 367.514918)"><g><path d="M 7.96875 -21.640625 L 5.546875 -21.265625 L 8.59375 -8.203125 L 9.03125 -5.25 L 9.140625 -5.21875 L 9.765625 -8.203125 L 14.125 -23.703125 L 16.96875 -23.703125 L 21.34375 -8.203125 L 22 -5.15625 L 22.09375 -5.15625 L 22.5625 -8.203125 L 25.546875 -21.265625 L 23.125 -21.640625 L 23.125 -23.703125 L 30.65625 -23.703125 L 30.65625 -21.640625 L 28.75 -21.390625 L 23.59375 0 L 20.71875 0 L 16.03125 -16.4375 L 15.609375 -18.578125 L 15.515625 -18.578125 L 15.109375 -16.4375 L 10.359375 0 L 7.5 0 L 2.34375 -21.390625 L 0.4375 -21.640625 L 0.4375 -23.703125 L 7.96875 -23.703125 Z M 7.96875 -21.640625 "/></g></g></g><g fill="#ffffff" fill-opacity="1"><g transform="translate(88.380942, 367.514918)"><g><path d="M 22.265625 -11.671875 C 22.265625 -8.222656 21.273438 -5.359375 19.296875 -3.078125 C 17.316406 -0.796875 14.753906 0.34375 11.609375 0.34375 C 8.546875 0.34375 6.054688 -0.796875 4.140625 -3.078125 C 2.234375 -5.359375 1.28125 -8.222656 1.28125 -11.671875 L 1.28125 -12.015625 C 1.28125 -15.453125 2.234375 -18.316406 4.140625 -20.609375 C 6.054688 -22.898438 8.546875 -24.046875 11.609375 -24.046875 C 14.753906 -24.046875 17.316406 -22.898438 19.296875 -20.609375 C 21.273438 -18.316406 22.265625 -15.453125 22.265625 -12.015625 Z M 19.0625 -12.046875 C 19.0625 -14.804688 18.398438 -17.054688 17.078125 -18.796875 C 15.765625 -20.535156 13.941406 -21.40625 11.609375 -21.40625 C 9.367188 -21.40625 7.625 -20.53125 6.375 -18.78125 C 5.125 -17.039062 4.5 -14.796875 4.5 -12.046875 L 4.5 -11.671875 C 4.5 -8.890625 5.125 -6.628906 6.375 -4.890625 C 7.625 -3.148438 9.367188 -2.28125 11.609375 -2.28125 C 13.972656 -2.28125 15.804688 -3.144531 17.109375 -4.875 C 18.410156 -6.613281 19.0625 -8.878906 19.0625 -11.671875 Z M 19.0625 -12.046875 "/></g></g></g><g fill="#ffffff" fill-opacity="1"><g transform="translate(114.47203, 367.514918)"><g><path d="M 1.15625 0 L 1.15625 -2.046875 L 3.8125 -2.5 L 3.8125 -21.1875 L 1.15625 -21.640625 L 1.15625 -23.703125 L 9.671875 -23.703125 L 9.671875 -21.640625 L 7.015625 -21.1875 L 7.015625 -2.5 L 15.25 -2.5 L 15.5 -5.21875 L 18.234375 -5.21875 L 18.234375 0 Z M 1.15625 0 "/></g></g></g><g fill="#ffffff" fill-opacity="1"><g transform="translate(136.558434, 367.514918)"><g><path d="M 1.15625 -2.046875 L 3.8125 -2.5 L 3.8125 -21.1875 L 1.15625 -21.640625 L 1.15625 -23.703125 L 19.46875 -23.703125 L 19.46875 -18 L 16.734375 -18 L 16.46875 -21.1875 L 7.015625 -21.1875 L 7.015625 -13.015625 L 16.1875 -13.015625 L 16.1875 -10.484375 L 7.015625 -10.484375 L 7.015625 -2.5 L 9.671875 -2.046875 L 9.671875 0 L 1.15625 0 Z M 1.15625 -2.046875 "/></g></g></g><g fill="#ffffff" fill-opacity="1"><g transform="translate(159.849494, 367.514918)"><g/></g></g><g fill="#ffffff" fill-opacity="1"><g transform="translate(170.70323, 367.514918)"><g><path d="M 7.96875 -21.640625 L 5.546875 -21.265625 L 8.59375 -8.203125 L 9.03125 -5.25 L 9.140625 -5.21875 L 9.765625 -8.203125 L 14.125 -23.703125 L 16.96875 -23.703125 L 21.34375 -8.203125 L 22 -5.15625 L 22.09375 -5.15625 L 22.5625 -8.203125 L 25.546875 -21.265625 L 23.125 -21.640625 L 23.125 -23.703125 L 30.65625 -23.703125 L 30.65625 -21.640625 L 28.75 -21.390625 L 23.59375 0 L 20.71875 0 L 16.03125 -16.4375 L 15.609375 -18.578125 L 15.515625 -18.578125 L 15.109375 -16.4375 L 10.359375 0 L 7.5 0 L 2.34375 -21.390625 L 0.4375 -21.640625 L 0.4375 -23.703125 L 7.96875 -23.703125 Z M 7.96875 -21.640625 "/></g></g></g><g fill="#ffffff" fill-opacity="1"><g transform="translate(204.364148, 367.514918)"><g><path d="M 0.890625 -2.046875 L 2.65625 -2.296875 L 10.9375 -23.703125 L 13.6875 -23.703125 L 21.828125 -2.296875 L 23.578125 -2.046875 L 23.578125 0 L 16.765625 0 L 16.765625 -2.046875 L 18.5625 -2.359375 L 17 -6.71875 L 7.5 -6.71875 L 5.890625 -2.359375 L 7.6875 -2.046875 L 7.6875 0 L 0.890625 0 Z M 8.5 -9.40625 L 16.015625 -9.40625 L 12.34375 -19.59375 L 12.25 -19.59375 Z M 8.5 -9.40625 "/></g></g></g><g fill="#ffffff" fill-opacity="1"><g transform="translate(231.350584, 367.514918)"><g><path d="M 1.15625 0 L 1.15625 -2.046875 L 3.8125 -2.5 L 3.8125 -21.1875 L 1.15625 -21.640625 L 1.15625 -23.703125 L 9.671875 -23.703125 L 9.671875 -21.640625 L 7.015625 -21.1875 L 7.015625 -2.5 L 15.25 -2.5 L 15.5 -5.21875 L 18.234375 -5.21875 L 18.234375 0 Z M 1.15625 0 "/></g></g></g><g fill="#ffffff" fill-opacity="1"><g transform="translate(253.436982, 367.514918)"><g><path d="M 1.15625 0 L 1.15625 -2.046875 L 3.8125 -2.5 L 3.8125 -21.1875 L 1.15625 -21.640625 L 1.15625 -23.703125 L 9.671875 -23.703125 L 9.671875 -21.640625 L 7.015625 -21.1875 L 7.015625 -2.5 L 15.25 -2.5 L 15.5 -5.21875 L 18.234375 -5.21875 L 18.234375 0 Z M 1.15625 0 "/></g></g></g><g fill="#ffffff" fill-opacity="1"><g transform="translate(275.523391, 367.514918)"><g><path d="M 1.15625 0 L 1.15625 -2.046875 L 3.8125 -2.5 L 3.8125 -21.1875 L 1.15625 -21.640625 L 1.15625 -23.703125 L 19.359375 -23.703125 L 19.359375 -18 L 16.609375 -18 L 16.34375 -21.1875 L 7.015625 -21.1875 L 7.015625 -13.515625 L 16.078125 -13.515625 L 16.078125 -10.984375 L 7.015625 -10.984375 L 7.015625 -2.5 L 16.546875 -2.5 L 16.796875 -5.6875 L 19.53125 -5.6875 L 19.53125 0 Z M 1.15625 0 "/></g></g></g><g fill="#ffffff" fill-opacity="1"><g transform="translate(299.351659, 367.514918)"><g><path d="M 20.296875 -23.703125 L 20.296875 -18.46875 L 17.5625 -18.46875 L 17.328125 -21.1875 L 12.0625 -21.1875 L 12.0625 -2.5 L 14.71875 -2.046875 L 14.71875 0 L 6.203125 0 L 6.203125 -2.046875 L 8.859375 -2.5 L 8.859375 -21.1875 L 3.578125 -21.1875 L 3.359375 -18.46875 L 0.609375 -18.46875 L 0.609375 -23.703125 Z M 20.296875 -23.703125 "/></g></g></g></svg>